<?xml version="1.0" encoding="UTF-8"?><svg id="Layer_2" xmlns="http://www.w3.org/2000/svg" xmlns:xlink="http://www.w3.org/1999/xlink" viewBox="0 0 120 34.56"><defs><style>.cls-1{fill:url(#linear-gradient);}</style><linearGradient id="linear-gradient" x1="120.32" y1="31.52" x2="-.44" y2="1.16" gradientUnits="userSpaceOnUse"><stop offset="0" stop-color="#47aee3"/><stop offset=".2" stop-color="#2495d3"/><stop offset=".74" stop-color="#285da8"/><stop offset=".94" stop-color="#5d2c85"/></linearGradient></defs><g id="Layer_1-2"><path class="cls-1" d="M15.04,4.49c.34,0,.67.02,1,.04L.65,23.89c-.42-1.38-.65-2.85-.65-4.37C0,11.22,6.73,4.49,15.04,4.49ZM15.71,22.15v-8.89l-7.07,8.89h7.07ZM20.88,5.67v16.49h5.52v5.18h-5.52v6.05c5.4-2.28,9.19-7.63,9.19-13.86s-3.79-11.58-9.19-13.86ZM15.04,34.56c.22,0,.45,0,.67-.02v-7.22H2.18c2.64,4.34,7.41,7.23,12.86,7.23ZM46.14,6.75c5.02,0,8.06,2.18,9.68,4.46l-4.21,3.9c-1.17-1.67-2.94-2.64-5.17-2.64-3.9,0-6.64,2.84-6.64,7.1s2.74,7.15,6.64,7.15c2.23,0,4-1.01,5.17-2.64l4.21,3.9c-1.62,2.28-4.66,4.46-9.68,4.46-7.55,0-12.97-5.32-12.97-12.87s5.42-12.82,12.97-12.82ZM73.12,31.84v-2.53c-1.67,1.98-4.56,3.14-7.75,3.14-3.9,0-8.51-2.64-8.51-8.11s4.61-7.81,8.51-7.81c3.24,0,5.44.62,7.75,2.18v-2.59c0-2.48-2.13-4.11-5.37-4.11-2.64,0-5.07.96-7.15,2.89l-2.43-4.31c2.99-2.64,6.84-3.85,10.69-3.85,5.58,0,10.69,2.23,10.69,9.28v15.81h-6.44ZM73.12,22.92c-1.06-1.42-3.09-2.13-5.17-2.13-2.53,0-4.61,1.37-4.61,3.7s2.08,3.6,4.61,3.6c2.08,0,4.11-.71,5.17-2.13v-3.04ZM79.48,22.15c1.77,1.67,7.78,5.33,13.32,5.33,2.79,0,4.11-.96,4.11-2.48,0-1.72-2.13-2.33-4.92-2.89-4.21-.81-9.63-1.82-9.63-7.65,0-4.11,3.6-7.7,10.04-7.7,4.16,0,7.45,1.42,9.83,3.35l-2.53,4.41c-1.47-1.57-4.26-2.84-7.25-2.84-2.33,0-3.85.86-3.85,2.28,0,1.52,1.93,2.08,4.66,2.64,4.21.81,9.83,1.93,9.83,8.01,0,4.51-3.8,7.86-10.59,7.86-5.52,0-10.64-2.32-13.01-5.12v-5.18ZM107.68,25.76v-12.77h-4.05v-5.63h4.05V0h6.49v7.36h4.97v5.63h-4.97v11.05c0,1.52.81,2.69,2.23,2.69.96,0,1.88-.35,2.23-.71l1.37,4.87c-.96.86-2.69,1.57-5.37,1.57-4.51,0-6.94-2.33-6.94-6.69Z"/></g></svg>