<?xml version="1.0" encoding="utf-8"?>
<!-- Generator: Adobe Illustrator 27.0.1, SVG Export Plug-In . SVG Version: 6.00 Build 0)  -->
<svg version="1.1" id="Layer_1" xmlns="http://www.w3.org/2000/svg" xmlns:xlink="http://www.w3.org/1999/xlink" x="0px" y="0px"
	 viewBox="0 0 149.4 46.3" style="enable-background:new 0 0 149.4 46.3;" xml:space="preserve">
<style type="text/css">
	.st0{fill:#FFFFFF;}
	.st1{fill:#E60004;}
	.st2{fill:#005AA9;}
	.st3{fill:#F9B700;}
	.st4{fill:#50AC25;}
</style>
<g>
	<g>
		<polygon class="st0" points="97.5,46.2 99.6,40.2 100.2,40.2 101.4,44.4 104.3,40.2 104.9,40.2 104.6,46.2 103.2,46.2 103.6,41.9 
			100.8,46.2 100.6,46.2 99.4,42.1 98.2,46.2 		"/>
		<polygon class="st0" points="111.3,39.6 110,46.2 111.1,46.2 112.4,39.6 		"/>
		<path class="st0" d="M117.6,42h1.1l-0.1,0.6h0.1c0,0,0.5-0.7,1.4-0.7c0.9,0,1,0.8,1,0.8s0.6-0.8,1.5-0.8c0.9,0,1.2,0.7,1.1,1
			c0,0.3-0.6,3.3-0.6,3.3h-1.2l0.5-2.8c0,0,0.2-0.8-0.6-0.8c-0.4,0-0.8,0.3-0.9,0.9c-0.1,0.5-0.5,2.7-0.5,2.7h-1.1l0.5-2.5
			c0,0,0.3-1.1-0.5-1.1c-0.5,0-0.9,0.6-1,1.2c-0.1,0.6-0.5,2.5-0.5,2.5h-1.1L117.6,42z"/>
		<path class="st0" d="M137.8,42h1.1l-0.1,0.6h0.1c0,0,0.5-0.7,1.4-0.7c0.9,0,1,0.8,1,0.8s0.6-0.8,1.5-0.8c0.9,0,1.2,0.7,1.1,1
			c0,0.3-0.6,3.3-0.6,3.3h-1.2l0.5-2.8c0,0,0.2-0.8-0.6-0.8c-0.4,0-0.8,0.3-0.9,0.9c-0.1,0.5-0.5,2.7-0.5,2.7h-1.1l0.5-2.5
			c0,0,0.3-1.1-0.5-1.1c-0.5,0-0.9,0.6-1,1.2c-0.1,0.6-0.5,2.5-0.5,2.5H137L137.8,42z"/>
		<polygon class="st0" points="124.9,40.2 129.4,40.2 129.4,40.8 127.6,40.7 126.7,46.2 125.4,46.2 126.5,40.7 124.9,40.8 		"/>
		<path class="st0" d="M132.2,44.1c0,0,0.1-0.4,0.1-0.8c0-0.4,0-1.4-1.5-1.4c-1.5,0-2.4,1.4-2.4,2.7c0,1.2,0.7,1.8,1.7,1.8
			c1,0,1.5-0.5,1.6-1c0,0-0.4,0.4-1.2,0.4c-0.7,0-1-0.4-1-1.2c0-0.3,0-0.3,0-0.6H132.2z M129.7,43.7c0-1.1,0.7-1.5,0.9-1.5
			c0.2,0,0.4,0.1,0.4,0.4c0.1,0.3,0,1.1,0,1.1L129.7,43.7L129.7,43.7z"/>
		<path class="st0" d="M108.9,45.8c-0.3-0.2,0.4-2.5,0.4-2.9c0-0.4-0.2-1-1.3-1c-1,0-1.8,0.6-1.8,0.6v0.4c0,0,0.7-0.4,1.2-0.4
			c0.4,0,0.8,0.2,0.8,0.6c0,0.4-0.3,0.6-1.1,0.8c-1.6,0.3-1.8,1.1-1.8,1.5c0,0.4,0.2,0.9,1,0.9c0.8,0,1.2-0.6,1.2-0.6s0,0.6,0.8,0.6
			c0.8,0,0.8-0.4,0.8-0.4S109.1,46,108.9,45.8 M107.8,44.9c-0.1,0.7-1.3,1.3-1.3,0.3c0-1,1.4-1.3,1.4-1.3S107.9,44.2,107.8,44.9"/>
		<path class="st0" d="M115.7,45.8c-0.3-0.2,0.4-2.5,0.4-2.9c0-0.4-0.2-1-1.3-1c-1,0-1.8,0.6-1.8,0.6v0.4c0,0,0.7-0.4,1.2-0.4
			c0.4,0,0.8,0.2,0.8,0.6c0,0.4-0.3,0.6-1.1,0.8c-1.6,0.3-1.7,1.1-1.7,1.5c0,0.4,0.2,0.9,1,0.9c0.8,0,1.2-0.6,1.2-0.6s0,0.6,0.8,0.6
			c0.8,0,0.8-0.4,0.8-0.4S116,46,115.7,45.8 M114.7,44.9c-0.1,0.7-1.3,1.3-1.3,0.3c0-1,1.4-1.3,1.4-1.3S114.8,44.2,114.7,44.9"/>
		<path class="st0" d="M136,45.8c-0.3-0.2,0.4-2.5,0.4-2.9c0-0.4-0.2-1-1.3-1c-1,0-1.8,0.6-1.8,0.6v0.4c0,0,0.7-0.4,1.2-0.4
			c0.4,0,0.8,0.2,0.8,0.6c0,0.4-0.3,0.6-1.1,0.8c-1.6,0.3-1.8,1.1-1.8,1.5c0,0.4,0.2,0.9,1,0.9c0.8,0,1.2-0.6,1.2-0.6s0,0.6,0.8,0.6
			c0.8,0,0.8-0.4,0.8-0.4S136.3,46,136,45.8 M135,44.9c-0.1,0.7-1.3,1.3-1.3,0.3c0-1,1.4-1.3,1.4-1.3S135.1,44.2,135,44.9"/>
	</g>
	<g>
		<g>
			<path class="st1" d="M4.2,21.8c0,2.2,0.3,4.3,0.9,6.4L27.5,0c-0.5,0-1-0.1-1.5-0.1C13.9-0.1,4.2,9.7,4.2,21.8z"/>
			<polygon class="st2" points="27,25.6 27,12.7 16.7,25.6 			"/>
			<path class="st3" d="M34.5,1.7v24h8v7.5h-8v8.8c7.9-3.3,13.4-11.1,13.4-20.1S42.4,5,34.5,1.7z"/>
			<path class="st4" d="M26,43.7c0.3,0,0.7,0,1,0V33.1H7.3C11.2,39.4,18.1,43.7,26,43.7z"/>
		</g>
		<g>
			<path class="st0" d="M57.3,34.1c-2.1-1.1-3.7-2.8-4.9-4.8c-1.2-2.1-1.8-4.4-1.8-7c0-2.6,0.6-4.9,1.8-7c1.2-2.1,2.8-3.7,4.9-4.8
				c2.1-1.1,4.4-1.7,7-1.7c2.3,0,4.3,0.4,6.1,1.3c1.8,0.9,3.2,2.2,4.3,3.9l-2.7,1.8c-0.9-1.3-2-2.3-3.3-3c-1.3-0.7-2.8-1-4.4-1
				c-1.9,0-3.6,0.4-5.2,1.3c-1.5,0.9-2.7,2.1-3.6,3.7c-0.9,1.6-1.3,3.4-1.3,5.4c0,2.1,0.4,3.9,1.3,5.4c0.9,1.6,2.1,2.8,3.6,3.6
				c1.5,0.9,3.3,1.3,5.2,1.3c1.6,0,3-0.3,4.4-1c1.3-0.6,2.5-1.6,3.3-2.9l2.7,1.8c-1,1.7-2.5,3-4.3,3.9c-1.8,0.9-3.9,1.3-6.1,1.3
				C61.7,35.8,59.4,35.2,57.3,34.1z"/>
			<path class="st0" d="M103,9v26.5h-3.4v-5.2c-1.1,1.8-2.5,3.1-4.3,4.1c-1.8,0.9-3.8,1.4-6,1.4c-2.5,0-4.7-0.6-6.8-1.7
				c-2-1.1-3.6-2.7-4.7-4.8c-1.1-2.1-1.7-4.4-1.7-7c0-2.6,0.6-5,1.7-7c1.1-2.1,2.7-3.6,4.7-4.8c2-1.1,4.3-1.7,6.8-1.7
				c2.2,0,4.1,0.4,5.8,1.3c1.7,0.9,3.2,2.2,4.3,3.9V9H103z M94.7,31.3c1.5-0.9,2.7-2.1,3.5-3.7c0.9-1.6,1.3-3.4,1.3-5.4
				c0-2-0.4-3.8-1.3-5.4c-0.9-1.6-2-2.8-3.5-3.7c-1.5-0.9-3.2-1.3-5-1.3c-1.9,0-3.6,0.4-5.1,1.3c-1.5,0.9-2.7,2.1-3.5,3.7
				c-0.9,1.6-1.3,3.4-1.3,5.4c0,2,0.4,3.8,1.3,5.4c0.9,1.6,2,2.8,3.5,3.7c1.5,0.9,3.2,1.3,5.1,1.3C91.5,32.6,93.2,32.2,94.7,31.3z"
				/>
			<path class="st0" d="M111.2,34.9c-2-0.6-3.5-1.4-4.6-2.3l1.6-2.8c1.1,0.9,2.5,1.6,4.2,2.1c1.7,0.6,3.4,0.8,5.2,0.8
				c2.4,0,4.2-0.4,5.4-1.1c1.2-0.8,1.7-1.8,1.7-3.2c0-1-0.3-1.7-1-2.3c-0.6-0.6-1.4-1-2.4-1.3c-1-0.3-2.3-0.6-3.9-0.8
				c-2.2-0.4-3.9-0.8-5.2-1.2c-1.3-0.4-2.4-1.1-3.4-2.1c-0.9-1-1.4-2.4-1.4-4.2c0-2.2,0.9-4,2.8-5.5c1.9-1.4,4.4-2.1,7.7-2.1
				c1.7,0,3.4,0.2,5.1,0.7c1.7,0.5,3.1,1.1,4.2,1.8l-1.6,2.9c-2.2-1.5-4.8-2.3-7.8-2.3c-2.3,0-4,0.4-5.2,1.2
				c-1.2,0.8-1.7,1.9-1.7,3.2c0,1,0.3,1.8,1,2.4c0.7,0.6,1.5,1.1,2.4,1.3c1,0.3,2.3,0.6,4,0.9c2.1,0.4,3.8,0.8,5.1,1.2
				c1.3,0.4,2.4,1.1,3.3,2.1c0.9,1,1.4,2.3,1.4,4c0,2.3-1,4.2-2.9,5.5c-1.9,1.4-4.6,2-8,2C115.2,35.8,113.1,35.5,111.2,34.9z"/>
			<path class="st0" d="M145.2,33.9c-0.7,0.6-1.5,1.1-2.5,1.4c-1,0.3-2,0.5-3.1,0.5c-2.5,0-4.4-0.7-5.8-2c-1.3-1.3-2-3.2-2-5.7V3.2
				h3.6V9h8v3h-8v15.8c0,1.6,0.4,2.8,1.2,3.6c0.8,0.8,1.9,1.2,3.4,1.2c1.6,0,2.9-0.5,3.9-1.4L145.2,33.9z"/>
		</g>
	</g>
</g>
</svg>
