<?xml version="1.0" encoding="utf-8"?>
<!-- Generator: Adobe Illustrator 27.0.1, SVG Export Plug-In . SVG Version: 6.00 Build 0)  -->
<svg version="1.1" id="Layer_1" xmlns="http://www.w3.org/2000/svg" xmlns:xlink="http://www.w3.org/1999/xlink" x="0px" y="0px"
	 viewBox="0 0 126.4 39.2" style="enable-background:new 0 0 126.4 39.2;" xml:space="preserve">
<style type="text/css">
	.st0{fill:#293785;}
	.st1{fill:#DB1F26;}
	.st2{fill:#E60004;}
	.st3{fill:#005AA9;}
	.st4{fill:#F9B700;}
	.st5{fill:#50AC25;}
</style>
<g>
	<g>
		<polygon class="st0" points="82.6,39.2 84.3,34 84.8,34 85.9,37.6 88.3,34 88.8,34 88.5,39.2 87.4,39.2 87.8,35.5 85.4,39.2 
			85.2,39.2 84.2,35.7 83.2,39.2 		"/>
		<polygon class="st0" points="94.3,33.5 93.2,39.2 94.1,39.2 95.2,33.5 		"/>
		<path class="st0" d="M99.6,35.6h0.9l-0.1,0.5h0.1c0,0,0.4-0.6,1.2-0.6c0.8,0,0.8,0.7,0.8,0.7s0.5-0.7,1.3-0.7c0.8,0,1,0.6,0.9,0.8
			c0,0.3-0.5,2.8-0.5,2.8h-1l0.4-2.3c0,0,0.2-0.7-0.5-0.7c-0.4,0-0.7,0.3-0.8,0.7c-0.1,0.5-0.4,2.3-0.4,2.3h-1l0.4-2.2
			c0,0,0.3-0.9-0.4-0.9c-0.4,0-0.7,0.5-0.8,1c-0.1,0.5-0.4,2.1-0.4,2.1h-0.9L99.6,35.6z"/>
		<path class="st1" d="M116.8,35.6h0.9l-0.1,0.5h0.1c0,0,0.4-0.6,1.2-0.6c0.8,0,0.8,0.7,0.8,0.7s0.5-0.7,1.3-0.7
			c0.8,0,1,0.6,0.9,0.8c0,0.3-0.5,2.8-0.5,2.8h-1l0.4-2.3c0,0,0.2-0.7-0.5-0.7c-0.4,0-0.7,0.3-0.8,0.7c-0.1,0.5-0.4,2.3-0.4,2.3h-1
			l0.4-2.2c0,0,0.3-0.9-0.4-0.9c-0.4,0-0.7,0.5-0.8,1c-0.1,0.5-0.4,2.1-0.4,2.1h-0.9L116.8,35.6z"/>
		<polygon class="st1" points="105.9,34 109.6,34 109.6,34.6 108.1,34.5 107.4,39.2 106.2,39.2 107.2,34.5 105.8,34.6 		"/>
		<path class="st1" d="M112,37.4c0,0,0.1-0.4,0.1-0.7c0-0.3,0-1.2-1.3-1.2c-1.3,0-2,1.2-2,2.3c0,1.1,0.6,1.5,1.5,1.5
			c0.9,0,1.3-0.4,1.4-0.8c0,0-0.4,0.3-1,0.3c-0.6,0-0.9-0.3-0.9-1c0-0.3,0-0.3,0-0.5H112z M109.9,37c0-0.9,0.6-1.2,0.8-1.2
			c0.2,0,0.3,0.1,0.4,0.3c0.1,0.2,0,0.9,0,0.9L109.9,37L109.9,37z"/>
		<path class="st0" d="M92.2,38.8c-0.2-0.1,0.3-2.1,0.4-2.5c0-0.3-0.2-0.9-1.1-0.9C90.6,35.5,90,36,90,36v0.4c0,0,0.6-0.4,1-0.4
			c0.4,0,0.6,0.2,0.6,0.5c0,0.4-0.3,0.5-0.9,0.7c-1.4,0.3-1.5,1-1.5,1.3c0,0.3,0.2,0.8,0.9,0.8c0.7,0,1-0.5,1-0.5s0,0.5,0.7,0.5
			c0.7,0,0.7-0.4,0.7-0.4S92.4,39,92.2,38.8 M91.3,38.1c-0.1,0.6-1.1,1.1-1.1,0.2c0-0.9,1.2-1.1,1.2-1.1S91.4,37.5,91.3,38.1"/>
		<path class="st0" d="M98,38.8c-0.2-0.1,0.3-2.1,0.4-2.5c0-0.3-0.2-0.9-1.1-0.9c-0.9,0-1.5,0.5-1.5,0.5v0.4c0,0,0.6-0.4,1-0.4
			c0.4,0,0.6,0.2,0.6,0.5c0,0.4-0.3,0.5-0.9,0.7c-1.4,0.3-1.5,1-1.5,1.3c0,0.3,0.2,0.8,0.9,0.8c0.7,0,1-0.5,1-0.5s0,0.5,0.7,0.5
			c0.7,0,0.7-0.4,0.7-0.4S98.2,39,98,38.8 M97.1,38.1C97,38.7,96,39.2,96,38.3c0-0.9,1.2-1.1,1.2-1.1S97.2,37.5,97.1,38.1"/>
		<path class="st1" d="M115.3,38.8c-0.2-0.1,0.3-2.1,0.4-2.5c0-0.3-0.2-0.9-1.1-0.9c-0.9,0-1.5,0.5-1.5,0.5v0.4c0,0,0.6-0.4,1-0.4
			c0.4,0,0.6,0.2,0.6,0.5c0,0.4-0.3,0.5-0.9,0.7c-1.4,0.3-1.5,1-1.5,1.3c0,0.3,0.2,0.8,0.9,0.8c0.7,0,1-0.5,1-0.5s0,0.5,0.7,0.5
			c0.7,0,0.7-0.4,0.7-0.4S115.5,39,115.3,38.8 M114.4,38.1c-0.1,0.6-1.1,1.1-1.1,0.2c0-0.9,1.2-1.1,1.2-1.1S114.5,37.5,114.4,38.1"
			/>
	</g>
	<g>
		<g>
			<path class="st2" d="M3.3,18.4c0,1.9,0.3,3.7,0.8,5.4l19-23.9c-0.4,0-0.8,0-1.2,0C11.6-0.1,3.3,8.2,3.3,18.4z"/>
			<polygon class="st3" points="22.7,21.7 22.7,10.7 14,21.7 			"/>
			<path class="st4" d="M29.1,1.3v20.4h6.8v6.4h-6.8v7.5c6.7-2.8,11.3-9.4,11.3-17.1S35.7,4.1,29.1,1.3z"/>
			<path class="st5" d="M21.9,37c0.3,0,0.6,0,0.8,0v-8.9H6C9.3,33.4,15.1,37,21.9,37z"/>
		</g>
		<g>
			<path class="st3" d="M48.4,28.9c-1.8-1-3.1-2.3-4.1-4.1c-1-1.8-1.5-3.7-1.5-5.9c0-2.2,0.5-4.2,1.5-5.9c1-1.7,2.4-3.1,4.1-4.1
				c1.8-1,3.7-1.5,6-1.5c1.9,0,3.7,0.4,5.2,1.1c1.5,0.8,2.7,1.9,3.6,3.3L61,13.4c-0.7-1.1-1.7-1.9-2.8-2.5c-1.1-0.6-2.4-0.8-3.7-0.8
				c-1.6,0-3.1,0.4-4.4,1.1c-1.3,0.7-2.3,1.8-3,3.1c-0.7,1.3-1.1,2.9-1.1,4.6c0,1.7,0.4,3.3,1.1,4.6c0.7,1.3,1.7,2.4,3,3.1
				c1.3,0.7,2.8,1.1,4.4,1.1c1.3,0,2.6-0.3,3.7-0.8c1.1-0.5,2.1-1.4,2.8-2.5l2.3,1.5c-0.9,1.5-2.1,2.6-3.6,3.3
				c-1.5,0.8-3.3,1.1-5.2,1.1C52.2,30.3,50.2,29.8,48.4,28.9z"/>
			<path class="st3" d="M87.2,7.6v22.5h-2.9v-4.5c-0.9,1.5-2.1,2.7-3.6,3.5c-1.5,0.8-3.2,1.2-5.1,1.2c-2.1,0-4-0.5-5.7-1.5
				c-1.7-1-3.1-2.3-4-4.1c-1-1.7-1.5-3.7-1.5-6c0-2.2,0.5-4.2,1.5-6c1-1.7,2.3-3.1,4-4c1.7-1,3.6-1.4,5.7-1.4c1.8,0,3.5,0.4,4.9,1.1
				c1.5,0.8,2.7,1.9,3.6,3.3V7.6H87.2z M80.1,26.5c1.3-0.7,2.3-1.8,3-3.1c0.7-1.3,1.1-2.9,1.1-4.6c0-1.7-0.4-3.2-1.1-4.6
				c-0.7-1.3-1.7-2.4-3-3.1c-1.3-0.7-2.7-1.1-4.3-1.1c-1.6,0-3,0.4-4.3,1.1c-1.3,0.7-2.3,1.8-3,3.1c-0.7,1.3-1.1,2.9-1.1,4.6
				c0,1.7,0.4,3.2,1.1,4.6c0.7,1.3,1.7,2.4,3,3.1c1.3,0.7,2.7,1.1,4.3,1.1C77.4,27.6,78.9,27.3,80.1,26.5z"/>
			<path class="st3" d="M94.1,29.5c-1.7-0.5-3-1.2-3.9-2l1.4-2.4c0.9,0.7,2.1,1.3,3.6,1.8c1.4,0.5,2.9,0.7,4.5,0.7
				c2.1,0,3.6-0.3,4.6-1c1-0.6,1.5-1.5,1.5-2.7c0-0.8-0.3-1.5-0.8-1.9c-0.5-0.5-1.2-0.8-2.1-1.1c-0.8-0.2-1.9-0.5-3.3-0.7
				c-1.8-0.3-3.3-0.7-4.4-1c-1.1-0.4-2.1-1-2.8-1.8c-0.8-0.9-1.2-2-1.2-3.6c0-1.9,0.8-3.4,2.4-4.6C95,8,97.2,7.4,100,7.4
				c1.5,0,2.9,0.2,4.4,0.6c1.5,0.4,2.7,0.9,3.6,1.5l-1.3,2.4c-1.9-1.3-4.1-1.9-6.6-1.9c-1.9,0-3.4,0.3-4.4,1c-1,0.7-1.5,1.6-1.5,2.7
				c0,0.9,0.3,1.5,0.8,2.1c0.6,0.5,1.2,0.9,2.1,1.1c0.8,0.2,2,0.5,3.4,0.8c1.8,0.3,3.2,0.7,4.3,1c1.1,0.3,2,0.9,2.8,1.8
				c0.8,0.8,1.2,2,1.2,3.4c0,2-0.8,3.5-2.5,4.7c-1.6,1.2-3.9,1.7-6.8,1.7C97.6,30.3,95.8,30.1,94.1,29.5z"/>
			<path class="st3" d="M123.1,28.7c-0.6,0.5-1.3,0.9-2.1,1.2c-0.8,0.3-1.7,0.4-2.6,0.4c-2.1,0-3.7-0.6-4.9-1.7
				c-1.1-1.1-1.7-2.8-1.7-4.8V2.6h3v4.9h6.8v2.6h-6.8v13.5c0,1.3,0.3,2.4,1,3.1c0.7,0.7,1.6,1,2.9,1c1.4,0,2.5-0.4,3.3-1.2
				L123.1,28.7z"/>
		</g>
	</g>
</g>
</svg>
